<svg version="1.2" xmlns="http://www.w3.org/2000/svg" viewBox="0 0 123 102" width="123" height="102">
	<title>Software-icon-svg</title>
	<style>
		.s0 { fill: #000000 } 
	</style>
	<g id="Layer">
		<path id="Layer" fill-rule="evenodd" class="s0" d="m3.3 0h116.2c1.9 0 3.4 1.5 3.4 3.3v77c0 1.9-1.5 3.4-3.4 3.4h-116.2c-1.8 0-3.3-1.5-3.3-3.4v-77c0-1.8 1.5-3.3 3.3-3.3zm35.3 44l3.9 3.8c1 1 1 2.7 0 3.7l-3.1 3q1.3 2.4 1.9 5.1h4c1.4 0 2.6 1.2 2.6 2.6v5.4c0 1.5-1.2 2.6-2.6 2.6h-4.4q-0.6 2-1.5 3.7h75.5c1.7 0 3-1.3 3-3v-62.7c0-1.6-1.3-3-3-3h-106.9c-1.7 0-3 1.4-3 3v34.6c1-0.8 2.5-0.7 3.4 0.2l3.1 3.1q2.4-1.3 5.1-1.9v-4c0-1.4 1.2-2.6 2.6-2.6h5.4c1.4 0 2.6 1.2 2.6 2.6v4.4c1.8 0.5 3.4 1.3 5 2.2l2.8-2.8c1-1 2.6-1 3.6 0zm53.1 16.4l9.7-5.5-9.7-5.5v-7.3l16 9.7v6.2l-16 9.7zm-10 7.3l-16.1-9.7v-6.2l16.1-9.7v7.3l-9.8 5.5 9.8 5.5zm-72.4-3.4c0 3.9 1.9 7.4 4.9 9.6h14.1c3-2.2 4.9-5.7 4.9-9.6 0-6.6-5.4-12-12-12-6.6 0-11.9 5.4-11.9 12zm4.4-40h7.6c0.6 0 1.1 0.5 1.1 1v2.2c0 0.6-0.5 1.1-1.1 1.1h-7.6c-0.6 0-1.1-0.5-1.1-1.1v-2.2c0-0.6 0.5-1 1.1-1zm12.7-11.2h29.6c0.6 0 1.1 0.5 1.1 1.1v2.2c0 0.6-0.5 1-1.1 1h-29.6c-0.6 0-1.1-0.4-1.1-1v-2.2c0-0.6 0.5-1.1 1.1-1.1zm-12.7 0h7.6c0.6 0 1.1 0.5 1.1 1.1v2.2c0 0.6-0.5 1-1.1 1h-7.6c-0.6 0-1.1-0.4-1.1-1v-2.2c0-0.6 0.5-1.1 1.1-1.1zm24.7 11.2h49.2c0.6 0 1.1 0.5 1.1 1v2.2c0 0.6-0.5 1.1-1.1 1.1h-49.2c-0.6 0-1.1-0.5-1.1-1.1v-2.2c0-0.6 0.5-1 1.1-1zm-12.2 0h7.7c0.6 0 1.1 0.5 1.1 1v2.2c0 0.6-0.5 1.1-1.1 1.1h-7.7c-0.6 0-1.1-0.5-1.1-1.1v-2.2c0-0.6 0.5-1 1.1-1zm20.1 64h30.3c0.1 5.2 2.2 9.9 8.1 13.6h-46.5c4.7-3.4 8.1-7.5 8.1-13.6z"/>
	</g>
</svg>
